<svg width="21" height="22" viewBox="0 0 21 22" fill="none" xmlns="http://www.w3.org/2000/svg">
<path d="M15 1.00017V4.75947C18.6562 6.85672 20.3072 9.64712 19.9531 13.1307C19.599 16.6142 17.9479 19.2374 15 21.0002" stroke="#888888" stroke-width="2" stroke-linecap="round" stroke-linejoin="round"/>
<path d="M5.3861 1.00017C4.3171 1.18485 3.5477 1.8111 3.07796 2.87892C2.37335 4.48067 1 9.98202 1 10.8631C1 11.7442 2.78383 14.1176 7.0259 17.718C8.99155 19.3863 10.1533 19.3012 10.7824 18.1821C11.4116 17.063 10.5793 16.3453 9.5248 15.5186C7.59335 14.0043 5.051 11.6077 5.051 10.5557C5.051 9.85432 5.7093 7.71697 7.0259 4.14367" stroke="#888888" stroke-width="2" stroke-linecap="round" stroke-linejoin="round"/>
<path d="M2.60059 13.4706C2.85774 15.9606 3.32423 18.4606 4.00005 20.9706" stroke="#888888" stroke-width="2" stroke-linecap="round"/>
<path d="M15 8.97232C15.7735 9.48617 16.2735 10.1549 16.5 10.9784C16.7265 11.8019 16.7926 12.5529 16.6982 13.2314" stroke="#888888" stroke-width="2" stroke-linecap="round"/>
</svg>
