<svg width="18" height="25" viewBox="0 0 18 25" fill="none" xmlns="http://www.w3.org/2000/svg">
<path d="M6.34348 2.37778L6.34263 2.37888L6.3419 2.38096C6.34096 2.38233 6.33922 2.38426 6.33767 2.38651C6.33443 2.39119 6.3301 2.39785 6.32436 2.40618C6.31239 2.42358 6.29485 2.44913 6.27271 2.48171C6.22845 2.54685 6.16471 2.64174 6.08423 2.76345C5.92321 3.00699 5.69458 3.35862 5.42391 3.79599C4.88338 4.66944 4.1685 5.89107 3.47218 7.28102C2.77731 8.66807 2.09131 10.2427 1.61921 11.8192C1.15076 13.3836 0.870408 15.0229 1.05431 16.5106C1.33258 18.7606 2.28589 20.5894 3.82874 21.7615C5.37099 22.9331 7.39188 23.3649 9.64269 23.0398C11.8935 22.7147 13.7385 21.7246 14.9419 20.1564C16.1458 18.5876 16.6212 16.5524 16.3429 14.3025C16.1588 12.8148 15.49 11.3126 14.6577 9.93598C13.8191 8.54881 12.7745 7.22415 11.767 6.08298C10.7573 4.93944 9.77064 3.96356 9.03681 3.27417C8.66936 2.92897 8.3633 2.65456 8.14875 2.46527C8.04152 2.37067 7.95695 2.2972 7.89842 2.24691C7.86914 2.22175 7.846 2.20208 7.83022 2.18869C7.82266 2.18227 7.81687 2.17708 7.8126 2.17348C7.81056 2.17176 7.80841 2.17038 7.80717 2.16933L7.80596 2.16753L7.80487 2.1667L6.97504 1.47073L6.34348 2.37778Z" stroke="#888888" stroke-width="2"/>
</svg>
