<svg width="12" height="12" viewBox="0 0 12 12" fill="none" xmlns="http://www.w3.org/2000/svg">
<path d="M2.80039 0V4M9.20039 0V4M2.40039 6H4.80039M9.60039 6H7.20039M2.40039 8.4H4.80039M7.20039 8.4H9.60039M1.20039 2H10.8004C11.0126 2 11.216 2.08429 11.3661 2.23431C11.5161 2.38434 11.6004 2.58783 11.6004 2.8V10.8C11.6004 11.0122 11.5161 11.2157 11.3661 11.3657C11.216 11.5157 11.0126 11.6 10.8004 11.6H1.20039C0.988217 11.6 0.784734 11.5157 0.634705 11.3657C0.484676 11.2157 0.400391 11.0122 0.400391 10.8V2.8C0.400391 2.58783 0.484676 2.38434 0.634705 2.23431C0.784734 2.08429 0.988217 2 1.20039 2Z" stroke="#913162"/>
</svg>
