<svg width="78" height="51" viewBox="0 0 78 51" fill="none" xmlns="http://www.w3.org/2000/svg">
<path d="M18.8714 3.86133H18.5984V4.84498H18.8714V3.86133Z" fill="#913162"/>
<path d="M11.3019 5.98844L11.0654 6.13672L11.5182 6.98858L11.7546 6.8403L11.3019 5.98844Z" fill="#913162"/>
<path d="M5.72537 11.9424L5.58887 12.1992L6.37305 12.691L6.50955 12.4342L5.72537 11.9424Z" fill="#913162"/>
<path d="M3.6377 20.1273V20.4238H4.54319V20.1273H3.6377Z" fill="#913162"/>
<path d="M5.5958 28.3506L5.7323 28.6074L6.51648 28.1156L6.37998 27.8588L5.5958 28.3506Z" fill="#913162"/>
<path d="M11.077 34.4064L11.3135 34.5547L11.7662 33.7028L11.5298 33.5545L11.077 34.4064Z" fill="#913162"/>
<path d="M18.6127 36.6758H18.8857V35.6921H18.6127V36.6758Z" fill="#913162"/>
<path d="M26.1815 34.5487L26.418 34.4004L25.9652 33.5485L25.7288 33.6968L26.1815 34.5487Z" fill="#913162"/>
<path d="M31.7559 28.5947L31.8924 28.3379L31.1082 27.8461L30.9717 28.1029L31.7559 28.5947Z" fill="#913162"/>
<path d="M33.8447 20.4098V20.1133H32.9392V20.4098H33.8447Z" fill="#913162"/>
<path d="M31.8855 12.1865L31.749 11.9297L30.9648 12.4215L31.1013 12.6783L31.8855 12.1865Z" fill="#913162"/>
<path d="M26.4042 6.12875L26.1677 5.98047L25.715 6.83233L25.9514 6.98062L26.4042 6.12875Z" fill="#913162"/>
<path d="M41.3404 30.9961H67.2438C67.4649 30.9961 67.6769 31.0915 67.8332 31.2613C67.9895 31.4311 68.0774 31.6615 68.0774 31.9016V44.3453C68.0774 44.7056 67.9456 45.0511 67.7111 45.3058C67.4766 45.5605 67.1586 45.7036 66.827 45.7036H41.7572C41.4256 45.7036 41.1076 45.5605 40.8731 45.3058C40.6386 45.0511 40.5068 44.7056 40.5068 44.3453V31.9016C40.5068 31.6615 40.5947 31.4311 40.751 31.2613C40.9073 31.0915 41.1193 30.9961 41.3404 30.9961Z" fill="#1E1E1E"/>
<path d="M68.0799 32.4159V33.5248L40.5049 35.6427V32.4159C40.5049 32.2294 40.5388 32.0447 40.6045 31.8725C40.6703 31.7002 40.7666 31.5436 40.888 31.4118C41.0095 31.28 41.1536 31.1754 41.3123 31.1041C41.4709 31.0327 41.6409 30.996 41.8126 30.9961H66.7715C66.9433 30.9959 67.1134 31.0325 67.2721 31.1037C67.4309 31.175 67.5751 31.2796 67.6966 31.4114C67.8181 31.5433 67.9145 31.6999 67.9803 31.8722C68.0461 32.0446 68.0799 32.2293 68.0799 32.4159Z" fill="#1E1E1E"/>
<path d="M68.0799 32.4159V33.5248L40.5049 35.6427V32.4159C40.5049 32.2294 40.5388 32.0447 40.6045 31.8725C40.6703 31.7002 40.7666 31.5436 40.888 31.4118C41.0095 31.28 41.1536 31.1754 41.3123 31.1041C41.4709 31.0327 41.6409 30.996 41.8126 30.9961H66.7715C66.9433 30.9959 67.1134 31.0325 67.2721 31.1037C67.4309 31.175 67.5751 31.2796 67.6966 31.4114C67.8181 31.5433 67.9145 31.6999 67.9803 31.8722C68.0461 32.0446 68.0799 32.2293 68.0799 32.4159Z" fill="#913162"/>
<path d="M77.3268 25.0982C77.3268 26.2049 77.1262 27.3007 76.7363 28.3231C76.3464 29.3455 75.775 30.2745 75.0546 31.057C74.3343 31.8395 73.4791 32.4602 72.5379 32.8837C71.5967 33.3072 70.5879 33.5251 69.5692 33.5251H34.78C36.4352 31.144 37.6269 28.4219 38.2827 25.5245C38.9385 22.6271 39.0445 19.6151 38.5944 16.6717H69.5706C73.8539 16.6717 77.3268 20.4448 77.3268 25.0982Z" fill="url(#paint0_linear_10_48)"/>
<path d="M67.9872 14.4648H59.7103C59.5472 14.4648 59.415 14.6084 59.415 14.7856V15.1485C59.415 15.3257 59.5472 15.4692 59.7103 15.4692H67.9872C68.1503 15.4692 68.2824 15.3257 68.2824 15.1485V14.7856C68.2824 14.6084 68.1503 14.4648 67.9872 14.4648Z" fill="#BCBCBC"/>
<path d="M54.9582 14.4648H38.89C38.7269 14.4648 38.5947 14.6084 38.5947 14.7856V15.1485C38.5947 15.3257 38.7269 15.4692 38.89 15.4692H54.9582C55.1213 15.4692 55.2535 15.3257 55.2535 15.1485V14.7856C55.2535 14.6084 55.1213 14.4648 54.9582 14.4648Z" fill="#BCBCBC"/>
<path d="M3.11157 18.6C3.13206 18.3789 3.15637 18.1582 3.18416 17.9397L0.169318 17.582C0.141185 17.8084 0.115828 18.0405 0.0946412 18.2718C-0.0748849 20.0946 -0.0164657 21.9339 0.268307 23.7397L3.16575 22.5244C3.00877 21.2229 2.99059 19.9061 3.11157 18.6Z" fill="#913162"/>
<path d="M6.91526 9.08349C6.95798 9.03104 5.42381 7.60028 4.65447 6.88867C2.99461 8.93198 1.73286 11.3193 0.945312 13.9066L3.824 14.9488C4.48107 12.7879 5.53244 10.793 6.91526 9.08349Z" fill="#913162"/>
<path d="M0.933594 26.636C1.4744 28.4199 2.24127 30.1133 3.21209 31.6674L5.73234 29.8363C4.82271 28.3822 4.12625 26.7837 3.66779 25.0977L0.933594 26.636Z" fill="#913162"/>
<path d="M5.9978 35.1923C7.279 36.4826 8.72089 37.5707 10.2811 38.4247L11.6753 35.4994C10.392 34.8005 9.20344 33.9128 8.14327 32.8613L5.9978 35.1923Z" fill="#913162"/>
<path d="M17.1212 37.2085C16.1943 37.1082 15.2775 36.9188 14.3814 36.6426L13.7295 39.8637C14.7421 40.1647 15.7761 40.3727 16.8207 40.4855C17.3806 40.5466 17.9364 40.5806 18.4879 40.5874L17.8867 37.2734C17.6325 37.2578 17.3773 37.2362 17.1212 37.2085Z" fill="#913162"/>
<path d="M37.2681 22.318C38.2972 11.1674 30.8077 1.22147 20.5447 0.103875C15.9712 -0.401656 11.3873 0.949943 7.67676 3.89811L9.62182 6.43589C12.7034 4.05038 16.4786 2.9641 20.2432 3.37968C28.8414 4.31692 35.1136 12.6483 34.2525 21.9916C33.6767 28.2331 30.0606 33.346 25.1594 35.7729L24.2421 33.3026L20.0557 39.3026L27.3344 41.6295L26.2924 38.8272C32.2054 35.9551 36.5762 29.8201 37.2681 22.318Z" fill="#913162"/>
<path d="M69.4799 44.7139L72.9337 44.9456L72.6128 43.4805L69.4799 44.7139Z" fill="#BCBCBC"/>
<path d="M68.4298 46.8789L70.3137 50.0325L71.2067 48.8802L68.4298 46.8789Z" fill="#BCBCBC"/>
<path d="M66.5059 46.8789L64.059 49.5374L65.2826 50.246L66.5059 46.8789Z" fill="#BCBCBC"/>
<path d="M25.2903 8.89663L19.5735 20.4095L12.5227 8.72155C14.3934 7.54406 16.5178 6.92581 18.6799 6.92971C21.0462 6.92971 23.4147 7.63867 25.2903 8.89663Z" fill="#BCBCBC"/>
<path d="M19.4611 21.5558C19.8695 21.5558 20.2006 21.1962 20.2006 20.7525C20.2006 20.3089 19.8695 19.9492 19.4611 19.9492C19.0528 19.9492 18.7217 20.3089 18.7217 20.7525C18.7217 21.1962 19.0528 21.5558 19.4611 21.5558Z" fill="#913162"/>
<path d="M19.0215 20.4686L19.8554 20.9368L25.2874 8.89648L19.0215 20.4686Z" fill="#913162"/>
<path d="M64.5523 42.6593H63.4235L61.1547 38.5361L61.1314 38.5402V42.6593H60.0029V36.5469H61.1314L63.4005 40.6656L63.4235 40.6614V36.5488H64.5523V42.6593Z" fill="white"/>
<path d="M59.1101 40.152C59.1101 40.9049 58.8924 41.5256 58.4571 42.0141C58.0218 42.5025 57.4544 42.7468 56.7552 42.7468C56.0605 42.7468 55.4962 42.5018 55.0623 42.0118C54.6283 41.5218 54.4119 40.9019 54.4131 40.152V39.0518C54.4131 38.3042 54.6289 37.6849 55.0605 37.1939C55.4921 36.7029 56.0545 36.4573 56.7475 36.457C57.4457 36.457 58.0139 36.7027 58.4522 37.1939C58.8906 37.6852 59.1095 38.3045 59.109 39.0518L59.1101 40.152ZM57.9854 39.0454C57.9854 38.5695 57.8759 38.1796 57.6568 37.8757C57.4378 37.5719 57.135 37.4193 56.7486 37.418C56.3672 37.418 56.0702 37.5706 55.8576 37.8757C55.6451 38.1808 55.5388 38.5707 55.5388 39.0454V40.1539C55.5388 40.6381 55.6458 41.0328 55.8597 41.3379C56.0737 41.643 56.3725 41.7956 56.7562 41.7956C57.1427 41.7956 57.4437 41.643 57.6593 41.3379C57.8748 41.0328 57.9831 40.6381 57.984 40.1539L57.9854 39.0454Z" fill="white"/>
<path d="M53.6645 40.152C53.6645 40.9049 53.4467 41.5256 53.0111 42.0141C52.5756 42.5025 52.0083 42.7468 51.3092 42.7468C50.6145 42.7468 50.0502 42.5018 49.6163 42.0118C49.1824 41.5218 48.9659 40.9019 48.9668 40.152V39.0518C48.9668 38.3042 49.1826 37.6849 49.6142 37.1939C50.0458 36.7029 50.6083 36.4573 51.3016 36.457C51.9997 36.457 52.5678 36.7027 53.0059 37.1939C53.444 37.6852 53.6631 38.3045 53.6631 39.0518L53.6645 40.152ZM52.5398 39.0454C52.5398 38.5695 52.4303 38.1796 52.2112 37.8757C51.9922 37.5719 51.6894 37.4193 51.303 37.418C50.9216 37.418 50.6246 37.5706 50.412 37.8757C50.1995 38.1808 50.0931 38.5707 50.0928 39.0454V40.1539C50.0928 40.6381 50.1998 41.0328 50.4138 41.3379C50.6277 41.643 50.9267 41.7956 51.3106 41.7956C51.6971 41.7956 51.9981 41.643 52.2137 41.3379C52.4292 41.0328 52.5375 40.6381 52.5384 40.1539L52.5398 39.0454Z" fill="white"/>
<path d="M47.1523 41.0629C47.1523 40.8277 47.0769 40.639 46.9262 40.4969C46.7754 40.3548 46.5105 40.2202 46.1315 40.0932C45.4831 39.8804 44.9904 39.6298 44.6532 39.3416C44.3161 39.0533 44.1479 38.66 44.1486 38.1617C44.1486 37.6606 44.338 37.2513 44.7168 36.9336C45.0956 36.6159 45.5788 36.457 46.1662 36.457C46.79 36.457 47.2919 36.6277 47.6719 36.969C48.0519 37.3104 48.2354 37.7584 48.2224 38.313L48.2148 38.3379H47.1214C47.1214 38.0331 47.0363 37.7986 46.8661 37.6346C46.6959 37.4706 46.4576 37.3887 46.1513 37.389C45.8734 37.389 45.6582 37.4618 45.5056 37.6074C45.4318 37.6763 45.3731 37.7622 45.3337 37.8587C45.2943 37.9553 45.2752 38.0602 45.2777 38.1659C45.2777 38.3731 45.3602 38.5432 45.525 38.676C45.6899 38.8088 45.9746 38.9494 46.3791 39.0978C46.9976 39.2885 47.4692 39.537 47.7938 39.8434C48.1185 40.1498 48.2805 40.5535 48.2801 41.0546C48.2801 41.5778 48.0921 41.9907 47.716 42.2933C47.34 42.5959 46.8421 42.7468 46.2225 42.746C45.617 42.746 45.0971 42.5825 44.663 42.2555C44.2288 41.9285 44.0181 41.44 44.0308 40.7901L44.0388 40.7648H45.1326C45.1326 41.126 45.2305 41.392 45.4264 41.5628C45.6223 41.7336 45.8877 41.8189 46.2225 41.8186C46.5235 41.8186 46.7536 41.7501 46.9126 41.613C46.9899 41.5485 47.0519 41.465 47.0936 41.3693C47.1352 41.2737 47.1554 41.1686 47.1523 41.0629Z" fill="white"/>
<path d="M44.1262 24.5089C44.1262 25.8989 43.5162 26.5939 42.2962 26.5939C41.0762 26.5939 40.4662 25.8989 40.4662 24.5089V21.7564H41.4562V24.6439C41.4562 25.3939 41.7362 25.7689 42.2962 25.7689C42.8662 25.7689 43.1512 25.3939 43.1512 24.6439V21.7564H44.1262V24.5089ZM45.0295 26.5039V21.7639C45.0995 21.7489 45.297 21.7289 45.622 21.7039C45.947 21.6789 46.1945 21.6664 46.3645 21.6664C47.5745 21.6664 48.1795 22.1614 48.1795 23.1514C48.1795 23.7664 47.9695 24.2164 47.5495 24.5014C47.2695 24.6964 46.9395 24.7939 46.5595 24.7939C46.2595 24.7939 46.077 24.7739 46.012 24.7339V26.5039H45.0295ZM46.012 22.5064V23.9389C46.142 23.9889 46.3045 24.0139 46.4995 24.0139C46.6995 24.0139 46.857 23.9439 46.972 23.8039C47.087 23.6589 47.1445 23.4614 47.1445 23.2114C47.1445 22.7064 46.922 22.4539 46.477 22.4539C46.222 22.4539 46.067 22.4714 46.012 22.5064ZM52.1698 25.9714C51.7548 26.3864 51.2673 26.5939 50.7073 26.5939C49.9023 26.5939 49.3023 26.2939 48.9073 25.6939C48.6223 25.2639 48.4798 24.7589 48.4798 24.1789C48.4798 23.4239 48.6748 22.8164 49.0648 22.3564C49.4498 21.8964 49.9848 21.6664 50.6698 21.6664C51.1498 21.6664 51.6298 21.8689 52.1098 22.2739L51.7273 22.8964C51.3673 22.6364 51.0398 22.5064 50.7448 22.5064C50.3348 22.5064 50.0173 22.6789 49.7923 23.0239C49.5973 23.3189 49.4998 23.7039 49.4998 24.1789C49.4998 24.5989 49.6148 24.9589 49.8448 25.2589C50.0898 25.5739 50.4173 25.7314 50.8273 25.7314C51.0973 25.7314 51.4173 25.6139 51.7873 25.3789L52.1698 25.9714ZM54.6243 21.6664C55.3543 21.6664 55.9168 21.9564 56.3118 22.5364C56.6218 22.9914 56.7768 23.5414 56.7768 24.1864C56.7768 24.9264 56.5743 25.5189 56.1693 25.9639C55.7843 26.3839 55.2693 26.5939 54.6243 26.5939C53.8843 26.5939 53.3218 26.3239 52.9368 25.7839C52.6268 25.3589 52.4718 24.8264 52.4718 24.1864C52.4718 23.4364 52.6743 22.8239 53.0793 22.3489C53.4643 21.8939 53.9793 21.6664 54.6243 21.6664ZM54.6243 25.7689C54.9843 25.7689 55.2618 25.6339 55.4568 25.3639C55.6518 25.0889 55.7493 24.6964 55.7493 24.1864C55.7493 23.6414 55.6418 23.2164 55.4268 22.9114C55.2268 22.6414 54.9593 22.5064 54.6243 22.5064C54.2643 22.5064 53.9843 22.6539 53.7843 22.9489C53.5893 23.2439 53.4918 23.6564 53.4918 24.1864C53.4918 25.2414 53.8693 25.7689 54.6243 25.7689ZM59.9065 25.3789C60.1865 24.3539 60.5615 23.1464 61.0315 21.7564H62.4565V26.5039H61.4665V22.6489C61.2315 23.6639 60.8465 24.9489 60.3115 26.5039H59.494C58.929 24.7889 58.5465 23.5164 58.3465 22.6864V26.5039H57.379V21.7564H58.744C59.214 23.0364 59.6015 24.2439 59.9065 25.3789ZM64.3234 21.7564V26.5039H63.3559V21.7564H64.3234ZM66.1913 23.3239V26.5039H65.2238V21.7564H66.0413C66.8413 22.7964 67.6363 23.8889 68.4263 25.0339V21.7564H69.4088V26.5039H68.5688C68.0988 25.9489 67.3063 24.8889 66.1913 23.3239ZM73.8171 26.1064C73.2321 26.4314 72.6646 26.5939 72.1146 26.5939C71.3646 26.5939 70.8021 26.3014 70.4271 25.7164C70.1471 25.2864 70.0071 24.7614 70.0071 24.1414C70.0071 23.4164 70.2171 22.8164 70.6371 22.3414C71.0321 21.8914 71.5346 21.6664 72.1446 21.6664C72.7046 21.6664 73.2021 21.8689 73.6371 22.2739L73.2546 22.8964C72.8946 22.6364 72.5446 22.5064 72.2046 22.5064C71.8646 22.5064 71.5821 22.6639 71.3571 22.9789C71.1371 23.2939 71.0271 23.6914 71.0271 24.1714C71.0271 24.6814 71.1696 25.0864 71.4546 25.3864C71.6896 25.6364 71.9746 25.7614 72.3096 25.7614C72.5196 25.7614 72.7121 25.7289 72.8871 25.6639V24.6814H72.0396V23.8264H73.8171V26.1064Z" fill="#913162"/>
<defs>
<linearGradient id="paint0_linear_10_48" x1="56.0534" y1="33.5251" x2="55.3661" y2="23.0039" gradientUnits="userSpaceOnUse">
<stop stop-color="#6B6B6B"/>
<stop offset="1" stop-color="#F2F2F2"/>
</linearGradient>
</defs>
</svg>
