<svg width="24" height="24" viewBox="0 0 24 24" fill="none" xmlns="http://www.w3.org/2000/svg">
<g clip-path="url(#clip0_67_6141)">
<path d="M4.25824 7.9661C6.59354 7.9661 8.01721 5.39738 6.77953 3.41706L4.85386 0.335975C4.57876 -0.104179 3.93773 -0.104179 3.66263 0.335975L1.73695 3.41706C0.499275 5.39738 1.92299 7.9661 4.25824 7.9661ZM2.92818 4.16158L4.25824 2.03343L5.58831 4.16153C6.24123 5.20619 5.49016 6.56131 4.25824 6.56131C3.02632 6.56136 2.27525 5.20624 2.92818 4.16158Z" fill="#888888"/>
<path d="M23.3784 5.25714L18.7429 0.621702C17.0308 -1.02635 14.3721 0.889634 15.3518 3.01951L1.18402 17.1873C-2.40353 21.0586 2.94553 26.402 6.81275 22.816L20.9805 8.64825C23.1122 9.62825 25.0257 6.96766 23.3784 5.25714ZM5.81945 21.8227C3.31441 24.144 -0.14305 20.6829 2.17731 18.1806L8.55061 11.8073H15.8349L5.81945 21.8227ZM17.2396 10.4025H9.95536L16.2596 4.09827L19.9018 7.74041L17.2396 10.4025ZM22.385 7.24374C22.1111 7.51762 21.6655 7.51757 21.3917 7.24374L16.7563 2.6083C16.1231 1.92512 17.0671 0.98216 17.7496 1.615L22.385 6.25044C22.6589 6.52427 22.6589 6.96986 22.385 7.24374Z" fill="#888888"/>
<path d="M10.6214 15.0365C10.8957 14.7621 10.8957 14.3175 10.6214 14.0432C9.939 13.4094 8.99445 14.3543 9.62813 15.0365C9.90238 15.3108 10.3471 15.3108 10.6214 15.0365Z" fill="#888888"/>
<path d="M6.15104 16.194C5.87674 16.4683 5.87674 16.913 6.15104 17.1873C6.83347 17.821 7.77802 16.8761 7.14434 16.194C6.87008 15.9197 6.42534 15.9197 6.15104 16.194Z" fill="#888888"/>
<path d="M3.99869 19.6706C3.72439 19.9449 3.72439 20.3896 3.99869 20.6639C4.68112 21.2976 5.62567 20.3527 4.99199 19.6706C4.71774 19.3963 4.27299 19.3963 3.99869 19.6706Z" fill="#888888"/>
</g>
<defs>
<clipPath id="clip0_67_6141">
<rect width="24" height="24" fill="white"/>
</clipPath>
</defs>
</svg>
