<svg width="40" height="40" viewBox="0 0 40 40" fill="none" xmlns="http://www.w3.org/2000/svg">
<path d="M31.8507 22.1916L23.9288 12.0666C23.5984 11.6442 22.9362 11.7336 22.7277 12.2254C22.2441 13.3659 21.2245 14.0467 20 14.0467C18.7756 14.0467 17.756 13.3659 17.2724 12.2254C17.0636 11.7329 16.4011 11.6451 16.0713 12.0666L8.14939 22.1916C7.93184 22.4696 7.95415 22.8658 8.20156 23.1176C9.80445 24.7494 11.5732 26.0042 13.4587 26.8472C17.5027 28.6553 22.4825 28.6619 26.5414 26.8472C28.4269 26.0042 30.1956 24.7493 31.7985 23.1176C32.0459 22.8658 32.0682 22.4696 31.8507 22.1916ZM20 26.7967C16.016 26.7967 12.6219 25.4111 9.64311 22.5646L16.5402 13.7493C18.2608 16.0193 21.7331 16.0276 23.4599 13.7493L30.357 22.5646C27.3782 25.4112 23.9841 26.7967 20 26.7967Z" fill="#913162"/>
<path d="M21.5575 19.1283L21.4557 19.7075C20.9167 19.6524 20.3551 19.6613 19.8218 19.7342C19.2211 18.7697 18.1663 18.1718 17 18.1718C15.1649 18.1718 13.6719 19.6649 13.6719 21.5C13.6719 23.5948 15.5919 25.172 17.6498 24.7646C18.4701 25.2846 19.578 25.5781 20.75 25.5781C23.2471 25.5781 25.2031 24.2809 25.2031 22.625V20.9843L26.1875 19.6718C26.3975 19.3919 26.3696 19.0002 26.1222 18.7528L24.6222 17.2528C24.3688 16.9995 23.9655 16.9771 23.6857 17.201L21.8107 18.701C21.6771 18.8078 21.5871 18.9598 21.5575 19.1283ZM22.7213 20.6307L22.8966 19.6332L24.0728 18.6922L24.6966 19.316L23.9375 20.3281C23.8462 20.4498 23.7969 20.5979 23.7969 20.75V22.625C23.7969 23.3551 22.4938 24.1718 20.75 24.1718C19.7524 24.1718 18.8058 23.9011 18.2178 23.4477C18.0351 23.3068 17.7961 23.2651 17.5775 23.3337C16.3364 23.724 15.0781 22.7911 15.0781 21.5C15.0781 20.4403 15.9403 19.5781 17 19.5781C17.7875 19.5781 18.4871 20.0504 18.7823 20.7813C18.9113 21.1007 19.2528 21.2796 19.5888 21.2039C20.3392 21.0347 21.1601 21.04 21.8796 21.1961C22.2683 21.2809 22.652 21.0249 22.7213 20.6307Z" fill="#913162"/>
<path d="M8.70312 11.3281C9.09144 11.3281 9.40625 11.0133 9.40625 10.625V9.40625H10.625C11.0133 9.40625 11.3281 9.09144 11.3281 8.70312C11.3281 8.31481 11.0133 8 10.625 8H8.70312C8.31481 8 8 8.31481 8 8.70312V10.625C8 11.0133 8.31481 11.3281 8.70312 11.3281Z" fill="#913162"/>
<path d="M31.2969 8H29.375C28.9867 8 28.6719 8.31481 28.6719 8.70312C28.6719 9.09144 28.9867 9.40625 29.375 9.40625H30.5938V10.625C30.5938 11.0133 30.9086 11.3281 31.2969 11.3281C31.6852 11.3281 32 11.0133 32 10.625V8.70312C32 8.31481 31.6852 8 31.2969 8Z" fill="#913162"/>
<path d="M31.2969 28.6719C30.9086 28.6719 30.5938 28.9867 30.5938 29.375V30.5938H29.375C28.9867 30.5938 28.6719 30.9086 28.6719 31.2969C28.6719 31.6852 28.9867 32 29.375 32H31.2969C31.6852 32 32 31.6852 32 31.2969V29.375C32 28.9867 31.6852 28.6719 31.2969 28.6719Z" fill="#913162"/>
<path d="M10.625 30.5938H9.40625V29.375C9.40625 28.9867 9.09144 28.6719 8.70312 28.6719C8.31481 28.6719 8 28.9867 8 29.375V31.2969C8 31.6852 8.31481 32 8.70312 32H10.625C11.0133 32 11.3281 31.6852 11.3281 31.2969C11.3281 30.9086 11.0133 30.5938 10.625 30.5938Z" fill="#913162"/>
<path d="M10.6719 11.375C10.6719 11.7633 10.9867 12.0781 11.375 12.0781H12.875C13.2633 12.0781 13.5781 11.7633 13.5781 11.375C13.5781 10.9867 13.2633 10.6719 12.875 10.6719H11.375C10.9867 10.6719 10.6719 10.9867 10.6719 11.375Z" fill="#913162"/>
<path d="M11.375 13.2969C10.9867 13.2969 10.6719 13.6117 10.6719 14C10.6719 14.3883 10.9867 14.7031 11.375 14.7031H11.75C12.1383 14.7031 12.4531 14.3883 12.4531 14C12.4531 13.6117 12.1383 13.2969 11.75 13.2969H11.375Z" fill="#913162"/>
</svg>
