<svg width="16" height="16" viewBox="0 0 16 16" fill="none" xmlns="http://www.w3.org/2000/svg">
<g clip-path="url(#clip0_52_6761)">
<path d="M16 8C16 12.4183 12.4183 16 8 16C5.67086 16 3.5742 15.0047 2.11233 13.4162C1.72718 12.9978 1.38753 12.5397 1.0991 12.0496C0.400653 10.8617 0 9.47755 0 8C0 3.58171 3.58171 0 8 0C9.47788 0 10.862 0.400653 12.0496 1.09943C12.5398 1.38764 12.9977 1.7273 13.4158 2.11265C15.0044 3.57388 16 5.67086 16 8Z" fill="#F0CD00"/>
<path d="M16.0001 8.00031C16.0001 12.319 12.5784 15.8383 8.29791 15.9948C4.01742 15.8383 0.595703 12.319 0.595703 8.00031C0.595703 3.68161 4.01742 0.162268 8.29791 0.00585938C12.5784 0.162268 16.0001 3.68161 16.0001 8.00031Z" fill="#FFDE50"/>
<path d="M13.4154 2.11283L2.11186 13.4163C1.72671 12.998 1.38706 12.5399 1.09863 12.0498L12.0492 1.09961C12.5393 1.38782 12.9973 1.72749 13.4154 2.11283ZM15.4477 5.07545L5.07447 15.4487C4.34594 15.1621 3.66349 14.77 3.049 14.2849L14.2843 3.04965C14.7694 3.66414 15.1614 4.34673 15.4477 5.07545Z" fill="#FFEA94"/>
<path d="M14.2162 7.99969C14.2162 11.4328 11.4328 14.2162 7.99969 14.2162C6.80394 14.2162 5.6872 13.8785 4.73928 13.2934C4.32722 13.0391 3.9462 12.7376 3.60394 12.3951C3.35231 12.1438 3.12268 11.8713 2.91757 11.5808C2.63263 11.1773 2.39694 10.7412 2.21553 10.2818C1.94516 9.59773 1.793 8.8539 1.78386 8.0761C1.7832 8.05063 1.7832 8.02516 1.7832 7.99969C1.7832 4.56655 4.56622 1.7832 7.99969 1.7832C8.02516 1.7832 8.05096 1.7832 8.07643 1.78386C8.85422 1.793 9.59773 1.94549 10.2818 2.21553C10.7412 2.39707 11.1772 2.63275 11.5808 2.91757C11.8717 3.12328 12.144 3.35284 12.3951 3.60394C12.7377 3.94614 13.0392 4.32717 13.2934 4.73928C13.8785 5.6872 14.2162 6.80394 14.2162 7.99969Z" fill="#FAA300"/>
<path d="M12.3951 3.60394L3.60394 12.3951C3.35231 12.1438 3.12268 11.8713 2.91757 11.5808C2.63263 11.1773 2.39694 10.7412 2.21553 10.2818C1.94516 9.59773 1.793 8.8539 1.78386 8.0761C1.7832 8.05063 1.7832 8.02516 1.7832 7.99969C1.7832 4.56655 4.56622 1.7832 7.99969 1.7832C8.02516 1.7832 8.05096 1.7832 8.07643 1.78386C8.85422 1.793 9.59773 1.94549 10.2818 2.21553C10.7412 2.39707 11.1772 2.63275 11.5808 2.91757C11.8717 3.12328 12.144 3.35284 12.3951 3.60394Z" fill="#FFBD00"/>
<path d="M14.2159 7.99969C14.2159 11.4328 11.4326 14.2162 7.99946 14.2162C7.88158 14.2162 7.76468 14.2129 7.64844 14.2064C10.9183 14.0245 13.5136 11.315 13.5136 7.99969C13.5136 4.68443 10.9183 1.97488 7.64844 1.793C7.76468 1.78647 7.88158 1.7832 7.99946 1.7832C11.4326 1.7832 14.2159 4.56655 14.2159 7.99969Z" fill="#F68E00"/>
<path d="M7.79502 7.5216V5.00402C8.18738 5.22047 8.45383 5.63824 8.45383 6.11716C8.45383 6.45499 8.72769 6.72885 9.06552 6.72885C9.40335 6.72885 9.67721 6.45499 9.67721 6.11716C9.67721 4.95304 8.87535 3.97286 7.79502 3.69943V3.20153C7.79502 2.86371 7.52116 2.58984 7.18333 2.58984C6.8455 2.58984 6.57164 2.86371 6.57164 3.20153V3.69939C5.49131 3.97286 4.68945 4.95301 4.68945 6.11713C4.68945 6.81221 4.8936 7.35425 5.31355 7.7742C5.61974 8.08039 6.02647 8.30697 6.57164 8.47308V10.9946C6.17928 10.7782 5.91283 10.3604 5.91283 9.8815C5.91283 9.54367 5.63897 9.26981 5.30114 9.26981C4.96331 9.26981 4.68945 9.54367 4.68945 9.8815C4.68945 11.0456 5.49131 12.0258 6.57164 12.2992V12.7971C6.57164 13.1349 6.8455 13.4088 7.18333 13.4088C7.52116 13.4088 7.79502 13.1349 7.79502 12.7971V12.2992C8.87535 12.0258 9.67721 11.0456 9.67721 9.8815C9.67721 9.19605 9.46431 8.63562 9.04446 8.21577C8.73932 7.91059 8.32753 7.68183 7.79502 7.5216ZM6.17863 6.90916C6.05487 6.78544 5.91287 6.58357 5.91287 6.11713C5.91287 5.6382 6.17931 5.22047 6.57167 5.00398V7.1694C6.40668 7.09299 6.27607 7.00663 6.17863 6.90916ZM7.79502 10.9946V8.8225C8.32665 9.07007 8.45383 9.42426 8.45383 9.8815C8.45383 10.3604 8.18738 10.7782 7.79502 10.9946Z" fill="#F68E00"/>
<path d="M8.61143 7.5216V5.00402C9.00379 5.22047 9.27024 5.63824 9.27024 6.11716C9.27024 6.45499 9.5441 6.72885 9.88193 6.72885C10.2198 6.72885 10.4936 6.45499 10.4936 6.11716C10.4936 4.95304 9.69175 3.97286 8.61143 3.69943V3.20153C8.61143 2.86371 8.33757 2.58984 7.99974 2.58984C7.66191 2.58984 7.38805 2.86371 7.38805 3.20153V3.69939C6.30772 3.97286 5.50586 4.95301 5.50586 6.11713C5.50586 6.81221 5.71001 7.35425 6.12996 7.7742C6.43615 8.08039 6.84287 8.30697 7.38805 8.47308V10.9946C6.99569 10.7782 6.72924 10.3604 6.72924 9.8815C6.72924 9.54367 6.45538 9.26981 6.11755 9.26981C5.77972 9.26981 5.50586 9.54367 5.50586 9.8815C5.50586 11.0456 6.30772 12.0258 7.38805 12.2992V12.7971C7.38805 13.1349 7.66191 13.4088 7.99974 13.4088C8.33757 13.4088 8.61143 13.1349 8.61143 12.7971V12.2992C9.69175 12.0258 10.4936 11.0456 10.4936 9.8815C10.4936 9.19605 10.2807 8.63562 9.86086 8.21577C9.55572 7.91059 9.1439 7.68183 8.61143 7.5216ZM6.995 6.90916C6.87125 6.78544 6.72924 6.58357 6.72924 6.11713C6.72924 5.6382 6.99569 5.22047 7.38805 5.00398V7.1694C7.22308 7.09299 7.09247 7.00663 6.995 6.90916ZM8.61143 10.9946V8.8225C9.14305 9.07007 9.27024 9.42426 9.27024 9.8815C9.2702 10.3604 9.00379 10.7782 8.61143 10.9946Z" fill="#FFEA94"/>
</g>
<defs>
<clipPath id="clip0_52_6761">
<rect width="16" height="16" fill="white"/>
</clipPath>
</defs>
</svg>
